<svg width="64" height="51" viewBox="0 0 64 51" fill="none" xmlns="http://www.w3.org/2000/svg">
<path d="M16.5926 18.7586C16.5926 10.3357 23.3528 3.51721 31.7037 3.51721C40.0444 3.51721 46.8148 10.3357 46.8148 18.7586C46.8148 27.1712 40.0444 34 31.7037 34C23.3528 33.9897 16.5926 27.1712 16.5926 18.7586Z" fill="black"/>
<path d="M31.8378 5.86206C31.8378 5.86206 19.053 13.5014 27.484 26.5248C27.484 26.5248 22.6077 24.0867 21.5423 16.9959C21.5116 16.7013 21.1633 16.3458 20.9072 17.0671C18.3769 24.2391 22.157 33.2396 32.4832 32.813C42.8913 32.3761 45.2475 20.521 39.8897 13.2068C39.6951 12.902 39.4185 12.8309 39.5824 13.4099C40.6171 17.1483 38.8858 21.5369 38.2712 22.5324C41.3752 12.3839 32.5241 5.95349 31.8378 5.86206Z" fill="#F1DDD4"/>
<path d="M6.97207 50.4835C6.0928 50.9793 4.85148 51 3.86877 51H0V41.6207H3.85843C5.04803 41.6207 6.51692 41.6517 7.31343 42.6846C7.62376 43.0668 7.75824 43.573 7.75824 44.0688C7.75824 45.0088 7.25137 45.6492 6.35141 45.9591C7.50997 46.207 8.29614 47.0127 8.29614 48.2316C8.30649 49.1716 7.79961 50.0393 6.97207 50.4835ZM4.05497 43.449H2.44126V45.2774H3.88946C4.58253 45.2774 5.31698 45.2154 5.31698 44.3374C5.30663 43.5626 4.69632 43.449 4.05497 43.449ZM4.1791 47.0231H2.44126V49.182H4.2722C5.04803 49.182 5.76178 49.0477 5.76178 48.118C5.76178 47.116 4.97562 47.0231 4.1791 47.0231Z" fill="black"/>
<path d="M12.4444 41.6207H10.0741V51H12.4444V41.6207Z" fill="black"/>
<path d="M18.6612 51C15.5589 51 13.6296 48.9335 13.6296 46.0172C13.6296 43.08 15.548 41.0345 18.6721 41.0345C21.7743 41.0345 23.7037 43.1115 23.7037 46.0172C23.7146 48.9335 21.7634 51 18.6612 51ZM18.6502 42.9961C16.9072 42.9961 16.3591 44.6326 16.3591 46.0172C16.3591 47.4544 16.8853 49.0384 18.6721 49.0384C20.4041 49.0384 20.9632 47.4544 20.9632 46.0592C20.9632 44.6221 20.4699 42.9961 18.6502 42.9961Z" fill="black"/>
<path d="M27.5554 51C26.2268 51 25.0571 50.48 24.5461 49.2807C24.3758 48.8668 24.3304 48.4529 24.2963 48.0072H25.1707C25.2161 49.355 26.1019 50.2571 27.6009 50.2571C28.7932 50.2571 29.9061 49.5566 29.9061 48.3574C29.9061 47.7312 29.5995 47.2961 29.0885 46.9246C28.4185 46.4365 27.4532 46.1181 26.681 45.7678C26.329 45.6193 25.977 45.4707 25.659 45.2478C25.0004 44.8127 24.637 44.1865 24.637 43.4224C24.637 41.8623 26.1019 41.0345 27.6122 41.0345C28.9068 41.0345 30.0537 41.6288 30.4171 42.8387C30.4852 43.0828 30.508 43.3269 30.5193 43.5816H29.6563C29.6222 43.295 29.5654 42.9979 29.4178 42.7325C29.0544 42.0639 28.3049 41.7774 27.5327 41.7774C26.522 41.7774 25.5341 42.3611 25.5341 43.3906C25.5341 45.545 30.8146 45.0992 30.8146 48.3149C30.8373 50.0555 29.3042 51 27.5554 51Z" fill="black"/>
<path d="M38.4657 48.7567C38.191 50.33 36.807 51 35.2645 51C33.9439 51 32.5916 50.4924 32.1479 49.183C32.0106 48.7973 32 48.3811 32 47.9547V41.6207H32.8135C32.8135 43.6813 32.8029 45.7317 32.8029 47.7923C32.8029 48.3202 32.8558 48.848 33.1304 49.3251C33.5636 50.056 34.4405 50.2894 35.2645 50.2894C35.74 50.2894 36.2788 50.1778 36.7014 49.9646C37.8318 49.4063 37.6945 48.2288 37.6945 47.1934V41.6207H38.5185V47.9243C38.5185 48.2085 38.508 48.4826 38.4657 48.7567Z" fill="black"/>
<path d="M41.4815 41.6207H40.8889V51H41.4815V41.6207Z" fill="black"/>
<path d="M46.8045 51C45.6008 51 44.5412 50.48 44.0782 49.2807C43.9239 48.8668 43.8827 48.4529 43.8519 48.0072H44.644C44.6852 49.355 45.4877 50.2571 46.8457 50.2571C47.9259 50.2571 48.9342 49.5566 48.9342 48.3574C48.9342 47.7312 48.6564 47.2961 48.1934 46.9246C47.5864 46.4365 46.7119 46.1181 46.0123 45.7678C45.6934 45.6193 45.3745 45.4707 45.0864 45.2478C44.4897 44.8127 44.1605 44.1865 44.1605 43.4224C44.1605 41.8623 45.4877 41.0345 46.856 41.0345C48.0288 41.0345 49.0679 41.6288 49.3971 42.8387C49.4589 43.0828 49.4794 43.3269 49.4897 43.5816H48.7078C48.6872 43.295 48.6255 42.9979 48.5021 42.7325C48.1728 42.0639 47.4938 41.7774 46.7942 41.7774C45.8786 41.7774 44.9835 42.3611 44.9835 43.3906C44.9835 45.545 49.7778 45.0992 49.7778 48.3149C49.7778 50.0555 48.3786 51 46.8045 51Z" fill="black"/>
<path d="M53.9208 51C52.715 51 51.6535 50.48 51.1897 49.2807C51.0351 48.8668 50.9939 48.4529 50.963 48.0072H51.7565C51.7978 49.355 52.6016 50.2571 53.9517 50.2571C55.0441 50.2571 56.0541 49.5566 56.0541 48.3574C56.0541 47.7312 55.7759 47.2961 55.3121 46.9246C54.704 46.4365 53.828 46.1181 53.1272 45.7678C52.8077 45.6193 52.4882 45.4707 52.1997 45.2478C51.6019 44.8127 51.2721 44.1865 51.2721 43.4224C51.2721 41.8623 52.6016 41.0345 53.9723 41.0345C55.1575 41.0345 56.1881 41.6288 56.5179 42.8387C56.5797 43.0828 56.6003 43.3269 56.6106 43.5816H55.8274C55.7965 43.295 55.7449 42.9979 55.611 42.7325C55.2812 42.0639 54.601 41.7774 53.9002 41.7774C52.9829 41.7774 52.0863 42.3611 52.0863 43.3906C52.0863 45.545 56.8889 45.0992 56.8889 48.3149C56.8889 50.0555 55.4976 51 53.9208 51Z" fill="black"/>
<path d="M59.2593 51V41.6207H63.9507V42.3231H60.0182V45.7835H63.6846V46.4963H60.0182V50.2872H64V51H59.2593Z" fill="black"/>
<path d="M55.1111 10.1303C55.0804 8.78538 55.0702 8.04985 54.8962 6.40018C54.3641 6.9886 53.791 7.64006 53.0952 8.26C52.9621 7.08317 52.737 6.0009 52.604 5.27588C51.683 6.25307 51.2839 6.67337 50.5164 7.44042C50.629 8.17594 50.7723 8.99553 50.8336 10.0358C50.0662 10.6242 49.3089 11.1496 48.5926 11.6014C48.6949 12.8728 48.7359 13.5558 48.8075 14.6906C48.9815 14.5855 49.9434 13.9235 51.0178 13.2195C51.0281 14.3754 51.069 15.4681 51.0178 16.4138C51.243 16.2772 52.5324 15.5942 53.3919 14.6906C53.5147 13.7239 53.4431 12.6521 53.4022 11.4963C54.3334 10.8448 54.9474 10.393 55.1111 10.1303Z" fill="#F1DDD4"/>
<path d="M17.4214 26.3793C11.6788 29.2709 13.1145 32.6317 17.3798 34.5084C22.415 36.7201 32.4854 37.8117 37.3333 36.069C28.4073 36.5191 20.428 33.637 17.4214 26.3793Z" fill="black"/>
<path d="M55.1013 10.1385C54.8657 10.427 54.1885 10.9628 53.3738 11.5604C53.4327 12.6525 53.4327 13.7138 53.3444 14.6205C52.5886 15.4756 51.5286 16.0629 51.3225 16.1866C51.3421 15.2696 51.3323 14.1671 51.2832 13.0441C50.2428 13.7653 49.3496 14.3526 49.1926 14.4556C49.1337 13.3841 49.1042 13.0028 49.0159 11.818C49.6637 11.3749 50.39 10.8494 51.1163 10.2724C51.0378 9.28333 50.9298 8.37663 50.8121 7.676C51.4893 6.94446 51.8427 6.60445 52.6573 5.66685C52.7947 6.38808 52.9616 7.41842 53.1088 8.593C53.7959 7.9645 54.4241 7.33599 54.9148 6.759C54.5124 2.96737 53.6388 0.350314 53.6388 0.340011L53.5211 0L53.3542 0.309101C53.3542 0.309101 53.3051 0.412134 53.1972 0.587291C52.5003 1.80309 49.5655 6.67658 45.6296 9.72637C47.3964 12.3743 48.4368 15.5993 48.4368 19.0715C48.4368 20.1637 48.3386 21.2352 48.1325 22.2759C48.6822 21.9771 49.2613 21.6474 49.8698 21.3073C51.0771 20.5655 52.039 20.0503 52.8242 19.2776C53.5996 18.4945 54.1885 17.4642 54.6204 15.7332V15.7229C54.9737 13.8786 55.1111 12.0549 55.1111 10.3446C55.1013 10.2621 55.1013 10.2003 55.1013 10.1385Z" fill="black"/>
</svg>
